#
#
#

mtllib bunny.mtl


#
#  Mesh
#
g  Mesh

v -0.210099 0.266663 0.144541
v 0.002165 0.345627 0.256580
v -0.160045 0.314370 0.100264
v 0.002165 0.343206 0.192117
v 0.164374 0.314370 0.100264
v 0.214428 0.266663 0.144541
v 0.144196 0.446582 0.048325
v 0.078734 0.499802 -0.055217
v 0.002165 0.477972 0.140188
v -0.074405 0.499802 -0.055217
v -0.139867 0.446582 0.048325
v -0.151714 0.440282 -0.122390
v -0.198050 0.299454 -0.035952
v -0.140673 0.303365 -0.169849
v -0.241721 0.223144 -0.029979
v -0.138948 0.177203 -0.154016
v -0.195654 0.124413 0.025400
v 0.002165 0.098890 -0.128212
v 0.002165 0.082554 0.081439
v 0.199983 0.124413 0.025400
v 0.116628 -0.238824 -0.217766
v -0.112298 -0.238824 -0.217766
v 0.002165 -0.145631 -0.300745
v -0.183919 -0.077085 -0.200103
v 0.002165 -0.026315 -0.257457
v -0.143808 -0.008477 -0.067753
v -0.133618 0.083114 -0.003436
v -0.128266 -0.041452 0.089415
v -0.153080 0.010263 0.220418
v -0.107685 -0.055835 0.162212
v 0.241504 -0.221718 -0.101676
v 0.107356 -0.237408 -0.069870
v 0.002165 -0.270847 -0.041765
v -0.103049 -0.237436 -0.069921
v -0.237175 -0.221700 -0.101686
v -0.149698 -0.266106 -0.189726
v -0.192048 -0.287966 -0.122406
v -0.193504 -0.345813 -0.209114
v 0.002165 0.224051 0.013761
v 0.066686 0.092382 0.080719
v 0.137948 0.083114 -0.003436
v 0.157410 0.010263 0.220418
v 0.132596 -0.041452 0.089415
v 0.112014 -0.055835 0.162212
v 0.078533 -0.011017 0.133769
v 0.082340 0.013819 0.229186
v 0.148138 -0.008477 -0.067753
v 0.155551 -0.230679 0.069202
v 0.258883 -0.129680 0.017874
v 0.261078 -0.221266 0.012593
v 0.196378 -0.287966 -0.122406
v 0.154028 -0.266106 -0.189726
v 0.197833 -0.345813 -0.209114
v 0.111141 -0.345826 -0.217445
v -0.062356 0.092382 0.080719
v -0.074204 -0.011017 0.133769
v 0.002165 -0.195554 0.111540
v -0.146518 -0.152646 0.086731
v -0.047911 0.235179 0.245261
v 0.002165 0.189574 0.244080
v 0.002165 0.258827 0.237126
v 0.052241 0.235179 0.245261
v 0.002165 0.268011 0.283078
v 0.027293 0.224909 0.233873
v 0.074416 0.247602 -0.021333
v 0.007751 0.682757 -0.156411
v 0.089537 0.684502 -0.266788
v 0.089565 0.764995 -0.193448
v 0.171379 0.660685 -0.143336
v 0.226910 0.658648 0.193210
v 0.118061 -0.287973 -0.121364
v 0.062117 -0.345078 0.269184
v 0.154476 -0.263020 0.168256
v 0.246857 -0.345117 0.244437
v 0.018047 0.628607 0.322227
v 0.089634 0.742508 0.193136
v 0.139005 0.585512 0.385550
v 0.002165 0.416657 -0.214784
v 0.156044 0.440282 -0.122390
v 0.145003 0.303365 -0.169849
v 0.202379 0.299454 -0.035952
v 0.246051 0.223144 -0.029979
v 0.143278 0.177203 -0.154016
v 0.002165 0.241331 -0.231269
v -0.085235 0.764995 -0.193448
v -0.222580 0.658648 0.193210
v -0.085305 0.742508 0.193136
v -0.134675 0.585512 0.385550
v -0.013717 0.628607 0.322227
v 0.150848 -0.152646 0.086731
v 0.188248 -0.077085 -0.200103
v -0.151221 -0.230679 0.069202
v -0.254553 -0.129680 0.017874
v -0.150146 -0.263020 0.168256
v -0.113731 -0.287973 -0.121364
v -0.256748 -0.221266 0.012593
v -0.070087 0.247602 -0.021333
v -0.167049 0.660685 -0.143336
v -0.085208 0.684502 -0.266788
v -0.003421 0.682757 -0.156411
v -0.057788 -0.345078 0.269184
v -0.106811 -0.345826 -0.217445
v 0.115485 -0.136776 0.162700
v 0.181082 -0.159229 0.257621
v 0.053047 -0.159243 0.280082
v -0.176752 -0.159229 0.257622
v -0.111156 -0.136776 0.162700
v -0.078011 0.013819 0.229186
v -0.048717 -0.159243 0.280082
v 0.002165 0.259023 0.243126
v -0.022963 0.224909 0.233873
v -0.242527 -0.345117 0.244437
v -0.337775 0.157694 0.108244
v -0.084931 0.264674 0.213736
v -0.427087 0.364150 0.024243
v 0.342104 0.157694 0.108244
v 0.431417 0.364150 0.024243
v 0.089260 0.264674 0.213736
v 0.002165 0.140611 0.276681
v 0.048075 0.276036 0.236448
v -0.043746 0.276036 0.236448
v 0.002165 0.073764 -0.239633
v 0.002165 -0.131803 -0.239634
v 0.002165 0.073764 -0.445200
v 0.002165 -0.131803 -0.445200
vn -0.822347 0.204292 0.531046
vn -0.000001 0.762966 0.646439
vn -0.682373 0.636853 0.358867
vn 0.000000 0.861051 0.508519
vn 0.682372 0.636853 0.358868
vn 0.822347 0.204293 0.531046
vn 0.757965 0.586958 0.284550
vn 0.252179 0.958225 -0.134949
vn -0.000000 0.750452 0.660925
vn -0.252180 0.958224 -0.134949
vn -0.757966 0.586958 0.284549
vn -0.740770 0.538948 -0.400992
vn -0.941123 0.333548 -0.055068
vn -0.682017 0.115974 -0.722082
vn -0.970244 0.141541 -0.196448
vn -0.555286 -0.481540 -0.678068
vn -0.682017 0.115974 -0.722082
vn -0.598343 -0.776050 0.199330
vn -0.000000 -0.887099 -0.461580
vn -0.555286 -0.481540 -0.678068
vn -0.000000 -0.969860 0.243664
vn 0.598343 -0.776050 0.199330
vn 0.329587 -0.804176 -0.494644
vn -0.329561 -0.804148 -0.494707
vn 0.000000 -0.069487 -0.997583
vn -0.714032 0.323533 -0.620874
vn 0.000000 -0.069487 -0.997583
vn -0.000000 0.694593 -0.719403
vn -0.809220 0.585614 0.047109
vn -0.866808 0.491699 -0.082923
vn -0.942902 -0.293291 0.157847
vn -0.896419 0.327160 0.298997
vn 0.378164 -0.802829 -0.460931
vn -0.942902 -0.293291 0.157847
vn 0.871861 -0.196516 -0.448597
vn -0.441839 -0.894606 0.066770
vn 0.000069 -0.974973 0.222322
vn 0.329587 -0.804176 -0.494644
vn 0.442146 -0.894467 0.066595
vn 0.000069 -0.974973 0.222322
vn -0.871856 -0.196475 -0.448626
vn 0.070624 0.605800 -0.792476
vn -0.988374 -0.062431 -0.138631
vn -0.733832 -0.402005 -0.547615
vn -0.000000 0.827562 0.561374
vn 0.051023 0.782102 0.621058
vn 0.866808 0.491700 -0.082923
vn 0.896420 0.327159 0.298997
vn 0.866808 0.491700 -0.082923
vn 0.942902 -0.293293 0.157847
vn -0.378165 -0.802828 -0.460931
vn -0.338687 -0.130325 0.931830
vn -0.963049 0.144175 0.227487
vn -0.378165 -0.802828 -0.460931
vn -0.338687 -0.130325 0.931829
vn 0.051023 0.782102 0.621058
vn 0.051023 0.782102 0.621058
vn -0.963049 0.144175 0.227487
vn 0.809223 0.585608 0.047134
vn -0.307119 -0.475140 0.824573
vn 0.866653 0.369126 0.335647
vn 0.832873 -0.470239 0.291888
vn 0.988375 -0.062459 -0.138615
vn -0.070555 0.605783 -0.792496
vn 0.733832 -0.402005 -0.547615
vn 0.988375 -0.062459 -0.138615
vn -0.070555 0.605783 -0.792496
vn -0.787533 0.039305 -0.615018
vn -0.051024 0.782101 0.621059
vn -0.866808 0.491699 -0.082923
vn -0.866808 0.491699 -0.082923
vn -0.000000 0.694593 -0.719403
vn -0.000000 0.827562 0.561374
vn -0.000000 0.694593 -0.719403
vn 0.866808 0.491700 -0.082923
vn 0.942901 -0.293293 0.157847
vn 0.809223 0.585608 0.047134
vn 0.051023 0.782102 0.621058
vn -0.000000 0.827562 0.561374
vn -0.338688 -0.130325 0.931829
vn 0.338687 -0.130325 0.931830
vn -0.338687 -0.130326 0.931830
vn 0.000000 -0.513008 0.858384
vn -0.755427 -0.394893 0.522867
vn 0.000069 -0.974973 0.222322
vn -0.598343 -0.776050 0.199330
vn -0.407684 -0.279321 0.869352
vn -0.000000 -0.509942 0.860209
vn 0.000000 0.099903 0.994997
vn 0.407683 -0.279320 0.869353
vn -0.000001 0.762966 0.646439
vn 0.000001 -0.601780 0.798662
vn -0.000001 0.762966 0.646439
vn -0.439393 -0.774896 0.454390
vn -0.130786 -0.879850 -0.456901
vn -0.996174 -0.044703 -0.075091
vn 0.032818 0.115201 -0.992800
vn 0.219182 0.925618 -0.308529
vn 0.032818 0.115201 -0.992800
vn 0.938184 -0.313603 -0.146508
vn 0.861621 0.493174 0.119953
vn -0.950624 0.305854 -0.052607
vn -0.920345 -0.144076 0.363602
vn 0.026211 0.980906 0.192709
vn 0.885453 0.346465 0.309734
vn -0.996174 -0.044703 -0.075091
vn -0.838075 0.299636 0.455904
vn -0.148223 0.931733 0.331517
vn 0.314218 -0.806947 0.500103
vn -0.148223 0.931733 0.331517
vn -0.252180 0.958224 -0.134949
vn -0.000000 0.539068 -0.842262
vn 0.740770 0.538949 -0.400992
vn 0.682017 0.115975 -0.722083
vn 0.941124 0.333547 -0.055067
vn 0.970244 0.141541 -0.196448
vn 0.682372 0.636853 0.358868
vn 0.822347 0.204293 0.531046
vn 0.970244 0.141541 -0.196448
vn 0.555286 -0.481540 -0.678068
vn 0.682017 0.115975 -0.722083
vn -0.000000 -0.226110 -0.974102
vn 0.555286 -0.481540 -0.678068
vn 0.555286 -0.481540 -0.678068
vn -0.682017 0.115975 -0.722082
vn -0.000000 0.539068 -0.842262
vn -0.219181 0.925618 -0.308529
vn -0.861621 0.493175 0.119952
vn 0.148223 0.931733 0.331517
vn -0.314218 -0.806947 0.500103
vn 0.838075 0.299636 0.455904
vn 0.682372 0.636853 0.358868
vn 0.740770 0.538949 -0.400992
vn 0.757965 0.586958 0.284550
vn 0.941124 0.333547 -0.055067
vn 0.740770 0.538949 -0.400992
vn 0.252179 0.958225 -0.134949
vn 0.755443 -0.394929 0.522816
vn -0.441839 -0.894606 0.066770
vn 0.714035 0.323523 -0.620875
vn 0.866653 0.369126 0.335647
vn 0.871861 -0.196516 -0.448597
vn 0.307250 -0.475104 0.824544
vn -0.809220 0.585614 0.047109
vn -0.866646 0.369137 0.335654
vn -0.714032 0.323533 -0.620874
vn -0.809220 0.585614 0.047109
vn -0.866646 0.369137 0.335654
vn -0.714032 0.323533 -0.620874
vn -0.871856 -0.196475 -0.448626
vn -0.026211 0.980906 0.192709
vn 0.950596 0.305939 -0.052610
vn -0.988374 -0.062431 -0.138631
vn -0.988374 -0.062431 -0.138631
vn -0.988374 -0.062431 -0.138631
vn -0.832898 -0.470206 0.291869
vn 0.130785 -0.879851 -0.456900
vn -0.938184 -0.313603 -0.146509
vn -0.032818 0.115201 -0.992800
vn -0.032818 0.115201 -0.992800
vn 0.996174 -0.044703 -0.075091
vn -0.938184 -0.313603 -0.146509
vn -0.314218 -0.806947 0.500103
vn -0.938184 -0.313603 -0.146509
vn 0.996174 -0.044703 -0.075091
vn -0.314218 -0.806947 0.500103
vn 0.920345 -0.144077 0.363602
vn 0.787533 0.039302 -0.615017
vn 0.070624 0.605800 -0.792476
vn 0.950596 0.305939 -0.052610
vn 0.070624 0.605800 -0.792476
vn 0.442147 -0.894467 0.066595
vn 0.832873 -0.470239 0.291888
vn -0.307119 -0.475140 0.824573
vn 0.988375 -0.062459 -0.138615
vn -0.950624 0.305854 -0.052607
vn 0.026211 0.980906 0.192709
vn -0.103508 -0.400634 -0.910373
vn 0.775556 -0.613829 0.147400
vn -0.427447 -0.321124 0.845085
vn -0.427447 -0.321124 0.845085
vn -0.942902 -0.293291 0.157847
vn -0.755427 -0.394893 0.522867
vn -0.809220 0.585614 0.047109
vn -0.809220 0.585614 0.047109
vn 0.442146 -0.894467 0.066595
vn -0.775557 -0.613828 0.147403
vn -0.896419 0.327160 0.298997
vn 0.103506 -0.400634 -0.910373
vn -0.896419 0.327159 0.298997
vn 0.103506 -0.400634 -0.910373
vn 0.378164 -0.802829 -0.460931
vn 0.963049 0.144174 0.227487
vn 0.103506 -0.400634 -0.910373
vn 0.427448 -0.321123 0.845085
vn 0.000001 -0.601780 0.798662
vn 0.000003 -0.975616 0.219483
vn 0.439396 -0.774895 0.454388
vn 0.871861 -0.196516 -0.448597
vn -0.920345 -0.144076 0.363602
vn -0.787533 0.039305 -0.615018
vn 0.733832 -0.402005 -0.547615
vn -0.920345 -0.144076 0.363602
vn 0.809223 0.585608 0.047134
vn -0.950624 0.305854 -0.052607
vn -0.441839 -0.894606 0.066770
vn 0.938184 -0.313603 -0.146508
vn -0.996174 -0.044703 -0.075091
vn 0.314218 -0.806947 0.500103
vn -0.996174 -0.044703 -0.075091
vn 0.938184 -0.313603 -0.146508
vn -0.000000 -0.509942 0.860209
vn -0.000000 -0.969860 0.243664
vn -0.000000 -0.509942 0.860209
vn 0.757965 0.586958 0.284550
vn 0.000000 0.861051 0.508519
vn -0.000000 0.750452 0.660925
vn -0.822347 0.204292 0.531046
vn -0.970244 0.141541 -0.196448
vn -0.757966 0.586958 0.284549
vn -0.682373 0.636853 0.358867
vn -0.000000 0.750452 0.660925
vn -0.000000 0.750452 0.660925
vn 0.338687 -0.130325 0.931830
vn -0.896419 0.327159 0.298997
vn 0.963049 0.144174 0.227487
vn -0.051024 0.782101 0.621059
vn 0.809223 0.585608 0.047134
vn 0.714036 0.323523 -0.620875
vn -0.000000 0.694593 -0.719403
vn 0.714036 0.323523 -0.620875
vn -0.809220 0.585614 0.047109
vn 0.307250 -0.475104 0.824544
vn 0.442147 -0.894467 0.066595
vn 0.307250 -0.475104 0.824544
vn 0.000000 -0.513008 0.858384
vn -0.338688 -0.130325 0.931829
vn -0.996174 -0.044703 -0.075091
vn 0.219182 0.925618 -0.308529
vn 0.861621 0.493175 0.119953
vn 0.219182 0.925618 -0.308529
vn 0.148223 0.931733 0.331517
vn 0.996174 -0.044703 -0.075091
vn 0.996174 -0.044703 -0.075092
vn 0.148223 0.931733 0.331517
vn -0.885452 0.346468 0.309734
vn -0.988374 -0.062431 -0.138631
vn 0.775556 -0.613829 0.147400
vn 0.896420 0.327159 0.298997
vn -0.103508 -0.400634 -0.910373
vn -0.963049 0.144175 0.227487
vn -0.963049 0.144175 0.227487
vn -0.103508 -0.400634 -0.910373
vn -0.000000 0.539068 -0.842262
vn -0.740770 0.538948 -0.400992
vn -0.740770 0.538948 -0.400992
vn -0.000000 0.539068 -0.842262
vn -0.733832 -0.402005 -0.547615
vn 0.920345 -0.144077 0.363602
vn 0.950596 0.305939 -0.052610
vn -0.885452 0.346468 0.309734
vn 0.920345 -0.144077 0.363602
vn -0.026211 0.980906 0.192709
vn -0.439513 0.168821 0.882229
vn 0.439513 0.168820 0.882229
vn 0.682017 0.115975 -0.722083
vn -0.996174 -0.044703 -0.075091
vn 0.314218 -0.806947 0.500103
vn -0.338688 -0.130325 0.931829
vn 0.755443 -0.394929 0.522816
vn 0.942901 -0.293293 0.157847
vn 0.861621 0.493174 0.119953
vn 0.000000 -0.069487 -0.997583
vn 0.714035 0.323523 -0.620875
vn 0.938184 -0.313603 -0.146508
vn -0.130786 -0.879850 -0.456901
vn 0.032818 0.115201 -0.992800
vn -0.407684 -0.279321 0.869352
vn 0.000000 0.284790 0.958590
vn 0.822347 0.204293 0.531046
vn -0.000000 -0.887099 -0.461580
vn 0.598343 -0.776050 0.199330
vn -0.329561 -0.804149 -0.494707
vn -0.757966 0.586958 0.284549
vn -0.941123 0.333548 -0.055068
vn -0.733832 -0.402005 -0.547615
vn 0.070624 0.605800 -0.792476
vn 0.787533 0.039302 -0.615017
vn -0.598343 -0.776050 0.199330
vn -0.822347 0.204292 0.531046
vn 0.130785 -0.879851 -0.456900
vn -0.032818 0.115201 -0.992800
vn 0.996174 -0.044703 -0.075091
vn -0.314218 -0.806947 0.500103
vn 0.996174 -0.044703 -0.075091
vn -0.219181 0.925618 -0.308529
vn -0.938184 -0.313603 -0.146509
vn -0.861621 0.493175 0.119952
vn -0.051024 0.782101 0.621059
vn 0.338687 -0.130325 0.931830
vn -0.000000 0.827562 0.561374
vn 0.103506 -0.400634 -0.910373
vn -0.896419 0.327160 0.298997
vn 0.963049 0.144174 0.227487
vn 1.000000 0.000000 0.000000
vt 0.453125 0.552734
vt 0.439453 0.039063
vt 0.378906 0.345703
vt 0.382813 0.015625
vt 0.498047 0.507813
vt 0.497070 0.509766
vt 0.499023 0.507813
vt 0.497070 0.507813
vt 0.497070 0.505859
vt 0.498047 0.503906
vt 0.497070 0.503906
vt 0.500000 0.503906
vt 0.272461 0.650391
vt 0.265625 0.656250
vt -0.309570 0.818359
vt -0.604492 0.998047
vt -0.089844 0.841797
vt 0.041992 0.923828
vt 0.064453 0.939453
vt 0.306641 0.998047
vt 0.321289 0.791016
vt 0.725586 0.074219
vt 0.752930 0.152344
vt 0.669922 0.072266
vt 0.656250 0.031250
vt 0.645508 0.042969
vt 0.665039 0.205078
vt 0.634766 0.011719
vt 0.655273 0.056641
vt 0.215820 0.648438
vt 0.194336 0.675781
vt 0.162109 0.642578
vt 0.186523 0.642578
vt 0.198242 0.609375
vt 0.308594 0.587891
vt 0.311523 0.736328
vt 0.286133 0.992188
vt 0.362305 0.888672
vt 0.430664 0.992188
vt 0.430664 0.734375
vt 0.429688 0.757813
vt 0.328125 0.652344
vt 0.442383 0.658203
vt 0.402344 0.630859
vt 0.483398 0.582031
vt 0.424805 0.521484
vt 0.500977 0.507813
vt 0.500000 0.507813
vt 0.502930 0.507813
vt 0.352539 0.685547
vt 0.416016 0.697266
vt 0.394531 0.609375
vt 0.481445 0.693359
vt 0.502930 0.652344
vt 0.445313 0.494141
vt 0.360352 0.529297
vt 0.502930 0.505859
vt 0.502930 0.503906
vt 0.323242 0.562500
vt 0.498047 0.505859
vt 0.297852 0.583984
vt 0.007813 0.802734
vt 0.346680 0.523438
vt 0.296875 0.654297
vt 0.435547 0.601563
vt 0.371094 0.736328
vt 0.469727 0.730469
vt 0.439453 0.468750
vt 0.310547 0.537109
vt 0.386719 0.531250
vt 0.382813 0.683594
vt 0.447266 0.591797
vt 0.329102 0.986328
vt 0.129883 0.708984
vt 0.113281 1.275391
vt -0.320313 1.050781
vt -0.224609 1.339844
vt 0.357422 0.751953
vt 0.427734 0.964844
vt 0.280273 0.964844
vt 0.403320 0.736328
vt 0.310547 0.742188
vt -0.218750 0.687500
vt 0.641602 0.001953
vt 0.625977 0.001953
vt 0.267578 0.800781
vt 0.258789 1.197266
vt -0.325195 0.572266
vt -0.303711 1.417969
vt 0.657227 0.031250
vt 0.748047 0.054688
vt 0.085938 0.052734
vt 0.041992 0.650391
vt 0.362305 0.027344
vt 0.340820 0.642578
vt 0.386719 0.486328
vt 0.343750 0.564453
vt 0.468750 0.587891
vt 0.464844 0.671875
vt 0.452148 0.533203
vt 0.466797 0.525391
vt 0.479492 0.630859
vt 0.994141 0.208984
vt 0.910156 1.005859
vt 0.771484 0.136719
vt -0.193359 0.724609
vt 0.823242 0.699219
vt 0.812500 1.052734
vt 0.837891 1.050781
vt 0.314453 0.703125
vt 0.781250 0.484375
vt 0.527344 0.484375
vt 0.781250 0.988281
vt 0.527344 0.988281
f 1/1/1 2/2/2 3/3/3
f 3/3/3 2/2/2 4/4/4
f 4/4/4 2/2/2 5/3/5
f 5/3/5 2/2/2 6/1/6
f 7/5/7 8/6/8 9/7/9
f 10/6/10 9/7/9 8/6/8
f 9/7/9 10/6/10 11/5/11
f 12/8/12 11/5/11 10/6/10
f 11/5/11 12/8/12 13/9/13
f 14/8/14 13/9/13 12/8/12
f 13/9/13 14/8/14 15/9/15
f 16/9/16 15/9/15 14/8/17
f 15/9/15 16/9/16 17/10/18
f 18/11/19 17/10/18 16/9/20
f 17/10/18 18/11/19 19/12/21
f 20/10/22 19/12/21 18/11/19
f 21/13/23 22/13/24 23/13/25
f 24/13/26 23/13/25 22/13/24
f 23/13/27 24/13/26 25/13/28
f 26/13/29 25/13/28 24/13/26
f 25/13/28 26/13/29 27/13/30
f 28/13/31 27/13/30 26/13/29
f 27/13/30 28/13/31 29/13/32
f 30/13/33 29/13/32 28/13/34
f 31/13/35 32/13/36 21/13/23
f 33/13/37 21/13/23 32/13/36
f 21/13/38 33/13/37 22/13/24
f 34/13/39 22/13/24 33/13/40
f 22/13/24 34/13/39 35/13/41
f 36/13/42 35/13/41 34/13/39
f 35/13/41 36/13/42 37/13/43
f 38/13/44 37/13/43 36/13/42
f 39/13/45 40/13/46 41/13/47
f 42/13/48 41/13/47 40/13/46
f 41/13/49 42/13/48 43/13/50
f 44/13/51 43/13/50 42/13/48
f 43/13/50 44/13/51 45/13/52
f 46/13/53 45/13/52 44/13/54
f 45/13/55 46/13/53 40/13/56
f 42/13/48 40/13/57 46/13/58
f 47/14/59 48/14/60 49/14/61
f 50/14/62 49/14/61 48/14/60
f 49/14/61 50/14/62 31/14/35
f 51/14/63 31/14/35 50/14/62
f 31/14/35 51/14/63 52/13/64
f 53/13/65 52/13/64 51/14/66
f 52/13/67 53/13/65 54/13/68
f 29/13/32 55/13/69 27/13/70
f 39/13/45 27/13/70 55/13/69
f 27/13/71 39/13/45 25/13/28
f 41/13/49 25/13/72 39/13/73
f 25/13/74 41/13/75 47/13/59
f 43/13/76 47/13/77 41/13/49
f 40/15/78 39/16/79 45/17/80
f 56/17/81 45/17/82 39/16/45
f 45/17/82 56/17/81 57/18/83
f 58/19/84 57/18/83 56/17/81
f 57/18/83 58/19/84 33/20/85
f 34/21/39 33/20/85 58/19/84
f 1/22/1 17/23/86 59/24/87
f 60/25/88 59/24/87 17/23/86
f 59/24/87 60/25/88 61/26/89
f 62/24/90 61/26/89 60/25/88
f 1/1/1 59/27/87 2/2/91
f 63/28/92 2/2/93 59/27/87
f 2/2/2 63/28/92 62/27/90
f 64/29/94 62/27/90 63/28/92
f 65/30/95 66/31/96 67/32/97
f 68/33/98 67/32/97 66/31/96
f 67/32/99 68/33/98 69/34/100
f 70/35/101 69/34/100 68/33/98
f 71/36/102 72/37/103 73/38/104
f 74/39/105 73/38/104 72/37/103
f 73/38/104 74/39/105 51/40/66
f 53/41/65 51/40/63 74/39/105
f 66/42/106 75/43/107 76/44/108
f 77/45/109 76/44/108 75/43/107
f 76/44/110 77/45/109 70/46/101
f 10/6/111 8/6/8 78/47/112
f 79/48/113 78/47/112 8/6/8
f 78/47/112 79/48/113 80/49/114
f 80/50/114 81/51/115 82/52/116
f 5/53/117 82/52/116 81/51/115
f 82/52/116 5/53/5 6/54/6
f 6/54/118 20/55/22 82/52/119
f 83/56/120 82/52/119 20/55/22
f 82/52/116 83/56/120 80/50/121
f 78/47/112 80/49/121 84/57/122
f 83/57/123 84/57/122 80/49/121
f 84/57/122 83/57/124 18/58/19
f 18/58/19 16/57/16 84/57/122
f 14/49/14 84/57/122 16/57/16
f 84/57/122 14/49/125 78/47/126
f 85/59/127 86/46/128 87/44/129
f 88/45/130 87/44/129 86/46/128
f 87/44/129 88/45/130 89/43/131
f 5/60/132 81/9/115 7/5/7
f 79/8/133 7/5/134 81/9/135
f 7/5/7 79/8/136 8/6/137
f 33/20/85 32/21/36 90/19/138
f 47/61/77 90/19/138 32/21/139
f 90/19/138 47/61/59 43/62/50
f 47/63/77 49/64/61 91/65/140
f 31/66/35 91/65/140 49/64/141
f 91/65/140 31/66/142 21/67/23
f 92/68/143 26/69/144 93/70/145
f 24/71/146 93/70/145 26/69/147
f 93/70/148 24/71/149 35/72/150
f 94/13/151 95/13/152 37/13/153
f 92/13/143 37/13/154 95/13/152
f 37/13/155 92/13/143 96/13/156
f 97/30/157 98/34/158 99/32/159
f 85/33/127 99/32/159 98/34/158
f 99/32/160 85/33/127 100/31/161
f 97/73/157 100/74/161 98/75/162
f 88/76/163 98/75/164 100/74/165
f 98/75/162 88/76/166 86/77/128
f 101/13/167 102/13/168 95/13/152
f 36/13/169 95/13/152 102/13/168
f 95/13/170 36/13/171 34/13/172
f 50/14/173 48/14/60 51/14/63
f 71/13/102 51/14/66 48/14/174
f 51/14/175 71/13/176 73/13/177
f 103/78/178 104/79/179 105/80/180
f 42/81/48 105/80/180 104/79/179
f 105/80/181 42/81/48 46/82/58
f 56/17/81 28/62/182 58/19/183
f 26/61/184 58/19/84 28/62/31
f 58/19/183 26/61/185 34/21/186
f 106/83/187 29/83/188 107/83/189
f 30/83/33 107/83/189 29/83/190
f 107/83/191 30/83/192 108/83/193
f 28/13/31 56/13/81 30/13/192
f 108/13/193 30/13/192 56/13/81
f 107/78/194 109/80/195 106/79/187
f 29/81/188 106/79/187 109/80/195
f 64/84/94 63/28/196 110/85/197
f 111/84/198 110/85/197 63/28/92
f 71/13/102 32/13/36 52/13/67
f 31/13/199 52/13/64 32/13/36
f 72/13/200 71/13/102 54/13/68
f 52/13/67 54/13/68 71/13/176
f 54/86/201 53/87/202 72/88/200
f 74/89/105 72/88/203 53/87/65
f 47/13/204 32/13/139 48/14/174
f 71/13/205 48/14/60 32/13/206
f 65/73/95 69/75/207 66/74/208
f 77/76/209 66/74/210 69/75/211
f 6/22/6 62/24/90 20/23/22
f 60/25/88 20/23/22 62/24/90
f 20/23/22 60/90/212 19/91/21
f 17/23/86 19/91/213 60/90/214
f 7/92/215 9/93/9 5/94/5
f 4/95/216 5/94/5 9/93/217
f 13/96/13 15/97/15 3/98/3
f 1/99/218 3/98/3 15/97/219
f 11/92/220 3/94/221 9/93/222
f 4/95/216 9/93/223 3/94/3
f 56/13/224 55/13/69 108/13/193
f 29/13/225 108/13/226 55/13/227
f 35/72/41 96/100/156 93/70/145
f 92/68/143 93/70/148 96/100/156
f 47/63/228 91/65/229 25/101/28
f 23/102/27 25/101/230 91/65/231
f 26/13/232 92/13/233 34/13/234
f 95/13/152 34/13/234 92/13/235
f 33/20/85 90/19/138 57/18/236
f 45/17/237 57/18/236 90/19/138
f 66/42/238 76/44/108 68/59/239
f 70/46/240 68/59/241 76/44/108
f 85/59/127 87/44/242 100/42/243
f 89/43/131 100/42/244 87/44/245
f 94/38/151 37/40/43 112/39/246
f 38/41/44 112/39/246 37/40/247
f 104/83/248 103/83/178 42/83/48
f 44/83/54 42/83/249 103/83/178
f 44/83/51 103/83/250 46/83/251
f 105/83/181 46/83/252 103/83/253
f 10/6/111 78/47/254 12/48/255
f 14/49/14 12/48/256 78/47/257
f 102/86/168 101/88/167 38/87/258
f 112/89/246 38/87/44 101/88/259
f 95/36/260 94/38/151 101/37/167
f 112/39/261 101/37/262 94/38/263
f 113/103/264 114/104/264 115/105/264
f 116/103/265 117/105/265 118/104/265
f 80/8/266 79/8/113 81/9/135
f 75/106/107 66/74/267 77/76/268
f 45/17/269 90/19/270 43/62/271
f 70/77/272 77/76/109 69/75/211
f 23/102/273 91/65/274 21/67/23
f 69/34/275 65/30/276 67/32/277
f 111/29/198 63/28/92 59/27/278
f 119/107/279 120/108/279 121/109/279
f 2/2/2 62/27/90 6/1/280
f 18/11/281 83/9/120 20/10/282
f 24/13/26 22/13/283 35/13/41
f 37/13/153 96/13/156 35/13/150
f 3/60/3 11/5/284 13/9/285
f 38/13/286 36/13/287 102/13/288
f 15/97/15 17/110/289 1/99/290
f 97/30/291 99/32/292 100/31/293
f 89/106/131 88/76/294 100/74/295
f 85/33/296 98/34/297 86/35/298
f 55/15/299 56/17/300 39/16/301
f 109/83/195 107/83/302 108/83/193
f 29/81/303 109/80/195 108/82/304
f 122/111/305 123/112/305 124/113/305
f 124/113/305 123/112/305 125/114/305
