#
#
#

mtllib bunny.mtl


#
#  Mesh Mesh
#
g  Mesh Mesh

v -0.210099 0.864991 0.144541
v 0.002165 0.943955 0.256580
v -0.160045 0.912698 0.100264
v 0.002165 0.941534 0.192117
v 0.164374 0.912698 0.100264
v 0.214428 0.864991 0.144541
v 0.144196 1.044910 0.048325
v 0.078734 1.098130 -0.055217
v 0.002165 1.076300 0.140188
v -0.074405 1.098130 -0.055217
v -0.139867 1.044910 0.048325
v -0.151714 1.038610 -0.122390
v -0.198050 0.897782 -0.035952
v -0.140673 0.901693 -0.169849
v -0.241721 0.821472 -0.029979
v -0.138948 0.775531 -0.154016
v -0.195654 0.722741 0.025400
v 0.002165 0.697218 -0.128212
v 0.002165 0.680882 0.081439
v 0.199983 0.722741 0.025400
v 0.116628 0.359504 -0.217766
v -0.112298 0.359504 -0.217766
v 0.002165 0.452697 -0.300745
v -0.183919 0.521243 -0.200103
v 0.002165 0.572013 -0.257457
v -0.143808 0.589851 -0.067753
v -0.133618 0.681442 -0.003436
v -0.128266 0.556876 0.089415
v -0.153080 0.608591 0.220418
v -0.107685 0.542493 0.162212
v 0.241504 0.376610 -0.101676
v 0.107356 0.360920 -0.069870
v 0.002165 0.327481 -0.041765
v -0.103049 0.360892 -0.069921
v -0.237175 0.376628 -0.101686
v -0.149698 0.332222 -0.189726
v -0.192048 0.310362 -0.122406
v -0.193504 0.252515 -0.209114
v 0.002165 0.822379 0.013761
v 0.066686 0.690710 0.080719
v 0.137948 0.681442 -0.003436
v 0.157410 0.608591 0.220418
v 0.132596 0.556876 0.089415
v 0.112014 0.542493 0.162212
v 0.078533 0.587311 0.133769
v 0.082340 0.612147 0.229186
v 0.148138 0.589851 -0.067753
v 0.155551 0.367649 0.069202
v 0.258883 0.468648 0.017874
v 0.261078 0.377062 0.012593
v 0.196378 0.310362 -0.122406
v 0.154028 0.332222 -0.189726
v 0.197833 0.252515 -0.209114
v 0.111141 0.252502 -0.217445
v -0.062356 0.690710 0.080719
v -0.074204 0.587311 0.133769
v 0.002165 0.402774 0.111540
v -0.146518 0.445682 0.086731
v -0.047911 0.833507 0.245261
v 0.002165 0.787902 0.244080
v 0.002165 0.857155 0.237126
v 0.052241 0.833507 0.245261
v 0.002165 0.866339 0.283078
v 0.027293 0.823237 0.233873
v 0.074416 0.845930 -0.021333
v 0.007751 1.281085 -0.156411
v 0.089537 1.282830 -0.266788
v 0.089565 1.363323 -0.193448
v 0.171379 1.259013 -0.143336
v 0.226910 1.256976 0.193210
v 0.118061 0.310355 -0.121364
v 0.062117 0.253250 0.269184
v 0.154476 0.335308 0.168256
v 0.246857 0.253211 0.244437
v 0.018047 1.226935 0.322227
v 0.089634 1.340836 0.193136
v 0.139005 1.183840 0.385550
v 0.002165 1.014985 -0.214784
v 0.156044 1.038610 -0.122390
v 0.145003 0.901693 -0.169849
v 0.202379 0.897782 -0.035952
v 0.246051 0.821472 -0.029979
v 0.143278 0.775531 -0.154016
v 0.002165 0.839659 -0.231269
v -0.085235 1.363323 -0.193448
v -0.222580 1.256976 0.193210
v -0.085305 1.340836 0.193136
v -0.134675 1.183840 0.385550
v -0.013717 1.226935 0.322227
v 0.150848 0.445682 0.086731
v 0.188248 0.521243 -0.200103
v -0.151221 0.367649 0.069202
v -0.254553 0.468648 0.017874
v -0.150146 0.335308 0.168256
v -0.113731 0.310355 -0.121364
v -0.256748 0.377062 0.012593
v -0.070087 0.845930 -0.021333
v -0.167049 1.259013 -0.143336
v -0.085208 1.282830 -0.266788
v -0.003421 1.281085 -0.156411
v -0.057788 0.253250 0.269184
v -0.106811 0.252502 -0.217445
v 0.115485 0.461552 0.162700
v 0.181082 0.439099 0.257621
v 0.053047 0.439085 0.280082
v -0.176752 0.439099 0.257622
v -0.111156 0.461552 0.162700
v -0.078011 0.612147 0.229186
v -0.048717 0.439085 0.280082
v 0.002165 0.857351 0.243126
v -0.022963 0.823237 0.233873
v -0.242527 0.253211 0.244437
v -0.337775 0.756022 0.108244
v -0.084931 0.863002 0.213736
v -0.427087 0.962478 0.024243
v 0.342104 0.756022 0.108244
v 0.431417 0.962478 0.024243
v 0.089260 0.863002 0.213736
v 0.002165 0.738939 0.276681
v 0.048075 0.874364 0.236448
v -0.043746 0.874364 0.236448
v 0.002165 0.672092 -0.239633
v 0.002165 0.466525 -0.239634
v 0.002165 0.672092 -0.445200
v 0.002165 0.466525 -0.445200
vn -0.822347 0.204292 0.531046
vn -0.000001 0.762966 0.646439
vn -0.682373 0.636853 0.358867
vn 0.000000 0.861051 0.508519
vn 0.682372 0.636853 0.358868
vn 0.822347 0.204293 0.531046
vn 0.757965 0.586958 0.284550
vn 0.252179 0.958225 -0.134949
vn 0.000000 0.750452 0.660925
vn -0.252180 0.958224 -0.134949
vn -0.757966 0.586958 0.284549
vn -0.740770 0.538948 -0.400992
vn -0.941123 0.333548 -0.055068
vn -0.682017 0.115974 -0.722082
vn -0.970244 0.141541 -0.196448
vn -0.555286 -0.481540 -0.678068
vn -0.598343 -0.776050 0.199330
vn -0.000000 -0.887099 -0.461580
vn 0.000000 -0.969860 0.243664
vn 0.598343 -0.776050 0.199330
vn 0.329587 -0.804176 -0.494644
vn -0.329561 -0.804148 -0.494707
vn 0.000000 -0.069487 -0.997583
vn -0.714032 0.323533 -0.620874
vn 0.000000 0.694593 -0.719403
vn -0.809220 0.585614 0.047109
vn -0.866808 0.491699 -0.082923
vn -0.942902 -0.293291 0.157847
vn -0.896419 0.327160 0.298997
vn 0.378164 -0.802829 -0.460931
vn 0.871861 -0.196516 -0.448597
vn -0.441839 -0.894606 0.066770
vn 0.000069 -0.974973 0.222322
vn 0.442146 -0.894467 0.066595
vn -0.871856 -0.196475 -0.448626
vn 0.070624 0.605800 -0.792476
vn -0.988374 -0.062431 -0.138631
vn -0.733832 -0.402005 -0.547615
vn 0.000000 0.827562 0.561374
vn 0.051023 0.782102 0.621058
vn 0.866807 0.491700 -0.082923
vn 0.896420 0.327159 0.298997
vn 0.942902 -0.293293 0.157847
vn -0.378165 -0.802828 -0.460931
vn -0.338687 -0.130325 0.931830
vn -0.963049 0.144175 0.227487
vn -0.338687 -0.130325 0.931830
vn 0.809223 0.585608 0.047134
vn -0.307119 -0.475140 0.824573
vn 0.866653 0.369126 0.335647
vn 0.832873 -0.470239 0.291888
vn 0.988375 -0.062459 -0.138615
vn -0.070555 0.605783 -0.792496
vn 0.733832 -0.402005 -0.547615
vn -0.787533 0.039305 -0.615018
vn -0.051024 0.782101 0.621059
vn 0.942902 -0.293293 0.157847
vn -0.338688 -0.130325 0.931829
vn 0.338687 -0.130325 0.931830
vn -0.338687 -0.130326 0.931830
vn 0.000000 -0.513008 0.858384
vn -0.755427 -0.394893 0.522867
vn -0.407684 -0.279321 0.869352
vn 0.000000 -0.509942 0.860209
vn 0.000000 0.099903 0.994997
vn 0.407683 -0.279320 0.869353
vn 0.000001 -0.601780 0.798662
vn -0.439393 -0.774896 0.454390
vn -0.130786 -0.879850 -0.456901
vn -0.996174 -0.044703 -0.075091
vn 0.032818 0.115201 -0.992800
vn 0.219182 0.925618 -0.308529
vn 0.938184 -0.313603 -0.146508
vn 0.861621 0.493174 0.119953
vn -0.950624 0.305854 -0.052607
vn -0.920345 -0.144076 0.363602
vn 0.026211 0.980906 0.192709
vn 0.885453 0.346465 0.309734
vn -0.838075 0.299636 0.455904
vn -0.148223 0.931733 0.331517
vn 0.314218 -0.806947 0.500103
vn 0.000000 0.539068 -0.842262
vn 0.740770 0.538949 -0.400992
vn 0.682017 0.115975 -0.722083
vn 0.941124 0.333547 -0.055067
vn 0.970244 0.141541 -0.196448
vn 0.555286 -0.481540 -0.678068
vn -0.000000 -0.226110 -0.974102
vn -0.682017 0.115975 -0.722082
vn -0.219181 0.925618 -0.308529
vn -0.861621 0.493175 0.119952
vn 0.148223 0.931733 0.331517
vn -0.314218 -0.806947 0.500103
vn 0.838075 0.299636 0.455904
vn 0.755443 -0.394929 0.522816
vn 0.714035 0.323523 -0.620875
vn 0.307250 -0.475104 0.824544
vn -0.866646 0.369137 0.335654
vn -0.026211 0.980906 0.192709
vn 0.950596 0.305939 -0.052610
vn -0.832898 -0.470206 0.291869
vn 0.130785 -0.879851 -0.456900
vn -0.938184 -0.313603 -0.146509
vn -0.032818 0.115201 -0.992800
vn 0.996174 -0.044703 -0.075091
vn 0.920345 -0.144077 0.363602
vn 0.787533 0.039302 -0.615017
vn 0.442147 -0.894467 0.066595
vn -0.103508 -0.400634 -0.910373
vn 0.775556 -0.613829 0.147400
vn -0.427447 -0.321124 0.845085
vn -0.775557 -0.613828 0.147403
vn 0.103506 -0.400634 -0.910373
vn -0.896419 0.327159 0.298997
vn 0.963049 0.144174 0.227487
vn 0.427448 -0.321123 0.845085
vn 0.000003 -0.975616 0.219483
vn 0.439396 -0.774895 0.454388
vn 0.714036 0.323523 -0.620875
vn 0.861621 0.493175 0.119953
vn 0.996174 -0.044703 -0.075092
vn -0.885452 0.346468 0.309734
vn -0.439513 0.168821 0.882229
vn 0.439513 0.168820 0.882229
vn 0.000000 0.284790 0.958590
vn -0.329561 -0.804149 -0.494707
vn 1.000000 0.000000 0.000000
vt 0.453125 0.552734
vt 0.439453 0.039063
vt 0.378906 0.345703
vt 0.382813 0.015625
vt 0.498047 0.507813
vt 0.497070 0.509766
vt 0.499023 0.507813
vt 0.497070 0.507813
vt 0.497070 0.505859
vt 0.498047 0.503906
vt 0.497070 0.503906
vt 0.500000 0.503906
vt 0.272461 0.650391
vt 0.265625 0.656250
vt -0.309570 0.818359
vt -0.604492 0.998047
vt -0.089844 0.841797
vt 0.041992 0.923828
vt 0.064453 0.939453
vt 0.306641 0.998047
vt 0.321289 0.791016
vt 0.725586 0.074219
vt 0.752930 0.152344
vt 0.669922 0.072266
vt 0.656250 0.031250
vt 0.645508 0.042969
vt 0.665039 0.205078
vt 0.634766 0.011719
vt 0.655273 0.056641
vt 0.215820 0.648438
vt 0.194336 0.675781
vt 0.162109 0.642578
vt 0.186523 0.642578
vt 0.198242 0.609375
vt 0.308594 0.587891
vt 0.311523 0.736328
vt 0.286133 0.992188
vt 0.362305 0.888672
vt 0.430664 0.992188
vt 0.430664 0.734375
vt 0.429688 0.757813
vt 0.328125 0.652344
vt 0.442383 0.658203
vt 0.402344 0.630859
vt 0.483398 0.582031
vt 0.424805 0.521484
vt 0.500977 0.507813
vt 0.500000 0.507813
vt 0.502930 0.507813
vt 0.352539 0.685547
vt 0.416016 0.697266
vt 0.394531 0.609375
vt 0.481445 0.693359
vt 0.502930 0.652344
vt 0.445313 0.494141
vt 0.360352 0.529297
vt 0.502930 0.505859
vt 0.502930 0.503906
vt 0.323242 0.562500
vt 0.498047 0.505859
vt 0.297852 0.583984
vt 0.007813 0.802734
vt 0.346680 0.523438
vt 0.296875 0.654297
vt 0.435547 0.601563
vt 0.371094 0.736328
vt 0.469727 0.730469
vt 0.439453 0.468750
vt 0.310547 0.537109
vt 0.386719 0.531250
vt 0.382813 0.683594
vt 0.447266 0.591797
vt 0.329102 0.986328
vt 0.129883 0.708984
vt 0.113281 1.275391
vt -0.320313 1.050781
vt -0.224609 1.339844
vt 0.357422 0.751953
vt 0.427734 0.964844
vt 0.280273 0.964844
vt 0.403320 0.736328
vt 0.310547 0.742188
vt -0.218750 0.687500
vt 0.641602 0.001953
vt 0.625977 0.001953
vt 0.267578 0.800781
vt 0.258789 1.197266
vt -0.325195 0.572266
vt -0.303711 1.417969
vt 0.657227 0.031250
vt 0.748047 0.054688
vt 0.085938 0.052734
vt 0.041992 0.650391
vt 0.362305 0.027344
vt 0.340820 0.642578
vt 0.386719 0.486328
vt 0.343750 0.564453
vt 0.468750 0.587891
vt 0.464844 0.671875
vt 0.452148 0.533203
vt 0.466797 0.525391
vt 0.479492 0.630859
vt 0.994141 0.208984
vt 0.910156 1.005859
vt 0.771484 0.136719
vt -0.193359 0.724609
vt 0.823242 0.699219
vt 0.812500 1.052734
vt 0.837891 1.050781
vt 0.314453 0.703125
vt 0.781250 0.484375
vt 0.527344 0.484375
vt 0.781250 0.988281
vt 0.527344 0.988281
f 1/1/1 2/2/2 3/3/3
f 3/3/3 2/2/2 4/4/4
f 4/4/4 2/2/2 5/3/5
f 5/3/5 2/2/2 6/1/6
f 7/5/7 8/6/8 9/7/9
f 10/6/10 9/7/9 8/6/8
f 9/7/9 10/6/10 11/5/11
f 12/8/12 11/5/11 10/6/10
f 11/5/11 12/8/12 13/9/13
f 14/8/14 13/9/13 12/8/12
f 13/9/13 14/8/14 15/9/15
f 16/9/16 15/9/15 14/8/14
f 15/9/15 16/9/16 17/10/17
f 18/11/18 17/10/17 16/9/16
f 17/10/17 18/11/18 19/12/19
f 20/10/20 19/12/19 18/11/18
f 21/13/21 22/13/22 23/13/23
f 24/13/24 23/13/23 22/13/22
f 23/13/23 24/13/24 25/13/25
f 26/13/26 25/13/25 24/13/24
f 25/13/25 26/13/26 27/13/27
f 28/13/28 27/13/27 26/13/26
f 27/13/27 28/13/28 29/13/29
f 30/13/30 29/13/29 28/13/28
f 31/13/31 32/13/32 21/13/21
f 33/13/33 21/13/21 32/13/32
f 21/13/21 33/13/33 22/13/22
f 34/13/34 22/13/22 33/13/33
f 22/13/22 34/13/34 35/13/35
f 36/13/36 35/13/35 34/13/34
f 35/13/35 36/13/36 37/13/37
f 38/13/38 37/13/37 36/13/36
f 39/13/39 40/13/40 41/13/41
f 42/13/42 41/13/41 40/13/40
f 41/13/41 42/13/42 43/13/43
f 44/13/44 43/13/43 42/13/42
f 43/13/43 44/13/44 45/13/45
f 46/13/46 45/13/45 44/13/44
f 45/13/47 46/13/46 40/13/40
f 42/13/42 40/13/40 46/13/46
f 47/14/48 48/14/49 49/14/50
f 50/14/51 49/14/50 48/14/49
f 49/14/50 50/14/51 31/14/31
f 51/14/52 31/14/31 50/14/51
f 31/14/31 51/14/52 52/13/53
f 53/13/54 52/13/53 51/14/52
f 52/13/53 53/13/54 54/13/55
f 29/13/29 55/13/56 27/13/27
f 39/13/39 27/13/27 55/13/56
f 27/13/27 39/13/39 25/13/25
f 41/13/41 25/13/25 39/13/39
f 25/13/25 41/13/41 47/13/48
f 43/13/57 47/13/48 41/13/41
f 40/15/40 39/16/39 45/17/58
f 56/17/59 45/17/60 39/16/39
f 45/17/60 56/17/59 57/18/61
f 58/19/62 57/18/61 56/17/59
f 57/18/61 58/19/62 33/20/33
f 34/21/34 33/20/33 58/19/62
f 1/22/1 17/23/17 59/24/63
f 60/25/64 59/24/63 17/23/17
f 59/24/63 60/25/64 61/26/65
f 62/24/66 61/26/65 60/25/64
f 1/1/1 59/27/63 2/2/2
f 63/28/67 2/2/2 59/27/63
f 2/2/2 63/28/67 62/27/66
f 64/29/68 62/27/66 63/28/67
f 65/30/69 66/31/70 67/32/71
f 68/33/72 67/32/71 66/31/70
f 67/32/71 68/33/72 69/34/73
f 70/35/74 69/34/73 68/33/72
f 71/36/75 72/37/76 73/38/77
f 74/39/78 73/38/77 72/37/76
f 73/38/77 74/39/78 51/40/52
f 53/41/54 51/40/52 74/39/78
f 66/42/70 75/43/79 76/44/80
f 77/45/81 76/44/80 75/43/79
f 76/44/80 77/45/81 70/46/74
f 10/6/10 8/6/8 78/47/82
f 79/48/83 78/47/82 8/6/8
f 78/47/82 79/48/83 80/49/84
f 80/50/84 81/51/85 82/52/86
f 5/53/5 82/52/86 81/51/85
f 82/52/86 5/53/5 6/54/6
f 6/54/6 20/55/20 82/52/86
f 83/56/87 82/52/86 20/55/20
f 82/52/86 83/56/87 80/50/84
f 78/47/82 80/49/84 84/57/88
f 83/57/87 84/57/88 80/49/84
f 84/57/88 83/57/87 18/58/18
f 18/58/18 16/57/16 84/57/88
f 14/49/14 84/57/88 16/57/16
f 84/57/88 14/49/89 78/47/82
f 85/59/90 86/46/91 87/44/92
f 88/45/93 87/44/92 86/46/91
f 87/44/92 88/45/93 89/43/94
f 5/60/5 81/9/85 7/5/7
f 79/8/83 7/5/7 81/9/85
f 7/5/7 79/8/83 8/6/8
f 33/20/33 32/21/32 90/19/95
f 47/61/48 90/19/95 32/21/32
f 90/19/95 47/61/48 43/62/43
f 47/63/48 49/64/50 91/65/96
f 31/66/31 91/65/96 49/64/50
f 91/65/96 31/66/31 21/67/21
f 92/68/97 26/69/26 93/70/98
f 24/71/24 93/70/98 26/69/26
f 93/70/98 24/71/24 35/72/35
f 94/13/99 95/13/100 37/13/37
f 92/13/97 37/13/37 95/13/100
f 37/13/37 92/13/97 96/13/101
f 97/30/102 98/34/103 99/32/104
f 85/33/90 99/32/104 98/34/103
f 99/32/104 85/33/90 100/31/105
f 97/73/102 100/74/105 98/75/103
f 88/76/93 98/75/103 100/74/105
f 98/75/103 88/76/93 86/77/91
f 101/13/106 102/13/107 95/13/100
f 36/13/36 95/13/100 102/13/107
f 95/13/100 36/13/36 34/13/108
f 50/14/51 48/14/49 51/14/52
f 71/13/75 51/14/52 48/14/49
f 51/14/52 71/13/75 73/13/77
f 103/78/109 104/79/110 105/80/111
f 42/81/42 105/80/111 104/79/110
f 105/80/111 42/81/42 46/82/46
f 56/17/59 28/62/28 58/19/62
f 26/61/26 58/19/62 28/62/28
f 58/19/62 26/61/26 34/21/34
f 106/83/112 29/83/29 107/83/113
f 30/83/30 107/83/113 29/83/114
f 107/83/113 30/83/30 108/83/115
f 28/13/28 56/13/59 30/13/30
f 108/13/115 30/13/30 56/13/59
f 107/78/113 109/80/116 106/79/112
f 29/81/29 106/79/112 109/80/116
f 64/84/68 63/28/67 110/85/117
f 111/84/118 110/85/117 63/28/67
f 71/13/75 32/13/32 52/13/53
f 31/13/31 52/13/53 32/13/32
f 72/13/76 71/13/75 54/13/55
f 52/13/53 54/13/55 71/13/75
f 54/86/55 53/87/54 72/88/76
f 74/89/78 72/88/76 53/87/54
f 47/13/48 32/13/32 48/14/49
f 71/13/75 48/14/49 32/13/32
f 65/73/69 69/75/73 66/74/70
f 77/76/81 66/74/70 69/75/73
f 6/22/6 62/24/66 20/23/20
f 60/25/64 20/23/20 62/24/66
f 20/23/20 60/90/64 19/91/19
f 17/23/17 19/91/19 60/90/64
f 7/92/7 9/93/9 5/94/5
f 4/95/4 5/94/5 9/93/9
f 13/96/13 15/97/15 3/98/3
f 1/99/1 3/98/3 15/97/15
f 11/92/11 3/94/3 9/93/9
f 4/95/4 9/93/9 3/94/3
f 56/13/59 55/13/56 108/13/115
f 29/13/114 108/13/115 55/13/56
f 35/72/35 96/100/101 93/70/98
f 92/68/97 93/70/98 96/100/101
f 47/63/48 91/65/119 25/101/25
f 23/102/23 25/101/25 91/65/119
f 26/13/26 92/13/97 34/13/108
f 95/13/100 34/13/108 92/13/97
f 33/20/33 90/19/95 57/18/61
f 45/17/58 57/18/61 90/19/95
f 66/42/70 76/44/80 68/59/72
f 70/46/120 68/59/72 76/44/80
f 85/59/90 87/44/92 100/42/105
f 89/43/94 100/42/121 87/44/92
f 94/38/99 37/40/37 112/39/122
f 38/41/38 112/39/122 37/40/37
f 104/83/110 103/83/109 42/83/42
f 44/83/44 42/83/42 103/83/109
f 44/83/44 103/83/109 46/83/46
f 105/83/111 46/83/46 103/83/109
f 10/6/10 78/47/82 12/48/12
f 14/49/14 12/48/12 78/47/82
f 102/86/107 101/88/106 38/87/38
f 112/89/122 38/87/38 101/88/106
f 95/36/100 94/38/99 101/37/106
f 112/39/122 101/37/106 94/38/99
f 113/103/123 114/104/123 115/105/123
f 116/103/124 117/105/124 118/104/124
f 80/8/84 79/8/83 81/9/85
f 75/106/79 66/74/70 77/76/81
f 45/17/58 90/19/95 43/62/57
f 70/77/74 77/76/81 69/75/73
f 23/102/23 91/65/96 21/67/21
f 69/34/73 65/30/69 67/32/71
f 111/29/118 63/28/67 59/27/63
f 119/107/125 120/108/125 121/109/125
f 2/2/2 62/27/66 6/1/6
f 18/11/18 83/9/87 20/10/20
f 24/13/24 22/13/126 35/13/35
f 37/13/37 96/13/101 35/13/35
f 3/60/3 11/5/11 13/9/13
f 38/13/38 36/13/36 102/13/107
f 15/97/15 17/110/17 1/99/1
f 97/30/102 99/32/104 100/31/105
f 89/106/94 88/76/93 100/74/105
f 85/33/90 98/34/103 86/35/91
f 55/15/56 56/17/59 39/16/39
f 109/83/116 107/83/113 108/83/115
f 29/81/29 109/80/116 108/82/115
f 122/111/127 123/112/127 124/113/127
f 124/113/127 123/112/127 125/114/127
